<?xml version="1.0" standalone="no"?>
<!DOCTYPE svg PUBLIC "-//W3C//DTD SVG 20010904//EN"
 "http://www.w3.org/TR/2001/REC-SVG-20010904/DTD/svg10.dtd">
<svg version="1.0" xmlns="http://www.w3.org/2000/svg"
 width="128.000000pt" height="128.000000pt" viewBox="0 0 128.000000 128.000000"
 preserveAspectRatio="xMidYMid meet">

<g transform="translate(0.000000,128.000000) scale(0.100000,-0.100000)"
fill="#000000" stroke="none">
<path d="M488 1221 c-273 -74 -458 -313 -458 -591 0 -207 123 -417 303 -518
104 -58 171 -75 297 -76 94 -1 128 3 186 22 138 44 249 129 329 252 61 94 87
176 93 295 5 119 -10 193 -65 305 -45 92 -159 210 -248 257 -136 71 -299 91
-437 54z m321 -111 c349 -138 443 -569 182 -831 -198 -198 -508 -201 -705 -6
-170 169 -204 404 -89 613 58 105 200 214 319 243 65 17 231 6 293 -19z"/>
<path d="M550 1011 c-100 -22 -216 -114 -259 -206 -92 -195 -17 -417 172 -510
322 -159 656 150 527 487 -30 80 -105 160 -185 198 -69 33 -184 47 -255 31z"/>
</g>
</svg>
