<?xml version="1.0" standalone="no"?>
<!DOCTYPE svg PUBLIC "-//W3C//DTD SVG 20010904//EN"
 "http://www.w3.org/TR/2001/REC-SVG-20010904/DTD/svg10.dtd">
<svg version="1.0" xmlns="http://www.w3.org/2000/svg"
 width="128.000000pt" height="128.000000pt" viewBox="0 0 128.000000 128.000000"
 preserveAspectRatio="xMidYMid meet">

<g transform="translate(0.000000,128.000000) scale(0.100000,-0.100000)"
fill="#000000" stroke="none">
<path d="M496 1209 c-113 -28 -189 -71 -277 -159 -82 -82 -115 -133 -150 -237
-32 -95 -33 -257 -2 -358 71 -227 282 -393 521 -412 235 -18 471 114 574 322
49 98 62 154 62 265 0 178 -49 295 -174 420 -89 89 -185 141 -302 165 -99 19
-154 18 -252 -6z m286 -99 c298 -92 435 -429 290 -715 -34 -68 -143 -174 -214
-208 -84 -40 -181 -60 -259 -53 -241 22 -427 197 -461 435 -20 141 27 290 124
397 61 66 114 103 188 132 74 28 82 30 181 31 61 1 106 -5 151 -19z"/>
<path d="M596 994 c-14 -13 -16 -60 -16 -363 0 -256 3 -350 12 -359 17 -17 64
-15 82 4 14 13 16 60 16 358 0 320 -1 344 -18 359 -23 21 -56 22 -76 1z"/>
<path d="M380 810 c-18 -18 -20 -33 -20 -178 0 -141 2 -161 18 -175 36 -33 85
-14 98 38 3 12 4 84 2 158 -3 116 -6 138 -22 156 -24 26 -50 27 -76 1z"/>
<path d="M810 808 c-18 -20 -20 -35 -20 -175 0 -140 2 -155 20 -173 25 -25 55
-25 80 0 18 18 20 33 20 175 0 142 -2 157 -20 175 -26 26 -54 25 -80 -2z"/>
</g>
</svg>
