<?xml version="1.0" standalone="no"?>
<!DOCTYPE svg PUBLIC "-//W3C//DTD SVG 20010904//EN"
 "http://www.w3.org/TR/2001/REC-SVG-20010904/DTD/svg10.dtd">
<svg version="1.0" xmlns="http://www.w3.org/2000/svg"
 width="128.000000pt" height="128.000000pt" viewBox="0 0 128.000000 128.000000"
 preserveAspectRatio="xMidYMid meet">

<g transform="translate(0.000000,128.000000) scale(0.100000,-0.100000)"
fill="#000000" stroke="none">
<path d="M560 1230 c-232 -29 -414 -181 -497 -412 -38 -107 -38 -251 0 -363
103 -304 408 -475 717 -400 200 48 354 190 426 393 20 55 24 87 24 183 0 164
-32 259 -127 380 -125 160 -337 245 -543 219z m193 -105 c254 -66 417 -309
379 -564 -33 -215 -202 -385 -420 -423 -253 -43 -507 128 -567 383 -62 264
100 532 365 603 72 19 172 20 243 1z"/>
<path d="M547 1010 c-192 -49 -325 -249 -288 -434 35 -175 149 -289 313 -315
175 -28 336 57 411 217 27 59 31 78 31 157 1 84 -2 95 -36 166 -44 89 -94 139
-182 180 -69 32 -183 45 -249 29z m41 -373 c3 -301 5 -293 -70 -259 -65 29
-104 66 -137 134 -44 87 -44 167 1 250 43 81 132 152 183 145 19 -2 20 -10 23
-270z m189 243 c163 -94 191 -311 58 -445 -42 -41 -118 -80 -141 -71 -12 4
-14 50 -14 269 0 145 3 267 7 270 13 13 38 7 90 -23z"/>
</g>
</svg>
