<?xml version="1.0" standalone="no"?>
<!DOCTYPE svg PUBLIC "-//W3C//DTD SVG 20010904//EN"
 "http://www.w3.org/TR/2001/REC-SVG-20010904/DTD/svg10.dtd">
<svg version="1.0" xmlns="http://www.w3.org/2000/svg"
 width="128.000000pt" height="128.000000pt" viewBox="0 0 128.000000 128.000000"
 preserveAspectRatio="xMidYMid meet">

<g transform="translate(0.000000,128.000000) scale(0.100000,-0.100000)"
fill="#000000" stroke="none">
<path d="M475 1211 c-195 -57 -349 -204 -412 -394 -51 -156 -31 -342 54 -486
33 -57 124 -153 179 -191 344 -232 811 -53 919 352 22 82 16 257 -10 328 -73
198 -238 350 -426 395 -86 20 -228 18 -304 -4z m278 -86 c379 -99 512 -569
238 -842 -203 -204 -509 -205 -712 -3 -201 201 -201 510 1 710 129 127 307
178 473 135z"/>
<path d="M502 902 c-15 -12 -25 -33 -29 -60 -5 -36 -2 -45 25 -72 41 -40 83
-41 123 -1 38 39 40 88 3 125 -32 31 -87 35 -122 8z"/>
<path d="M731 705 c-16 -14 -33 -35 -36 -46 -10 -32 14 -88 45 -104 36 -19 54
-19 89 0 60 30 61 123 2 158 -40 23 -64 21 -100 -8z"/>
<path d="M499 501 c-60 -61 -24 -151 61 -151 52 0 90 36 90 87 0 46 -46 93
-90 93 -22 0 -41 -9 -61 -29z"/>
</g>
</svg>
